<svg width="374" height="60" viewBox="0 0 374 60" fill="none" xmlns="http://www.w3.org/2000/svg">
<g clip-path="url(#clip0_1634_9785)">
<path d="M52.5 12.5C49.6627 11.6462 46.7129 11.2248 43.75 11.25C38.875 11.25 33.625 12.25 30 15C26.375 12.25 21.125 11.25 16.25 11.25C11.375 11.25 6.125 12.25 2.5 15V51.625C2.5 52.25 3.125 52.875 3.75 52.875C4 52.875 4.125 52.75 4.375 52.75C8.10797 51.0436 12.147 50.1083 16.25 50C21.125 50 26.375 51 30 53.75C33.375 51.625 39.5 50 43.75 50C47.875 50 52.125 50.75 55.625 52.625C55.875 52.75 56 52.75 56.25 52.75C56.875 52.75 57.5 52.125 57.5 51.5V15C55.9822 13.8972 54.2929 13.0525 52.5 12.5ZM52.5 46.25C49.75 45.375 46.75 45 43.75 45C39.5 45 33.375 46.625 30 48.75V20C33.375 17.875 39.5 16.25 43.75 16.25C46.75 16.25 49.75 16.625 52.5 17.5V46.25Z" fill="#1D1D3D"/>
<path d="M43.75 26.25C45.95 26.25 48.075 26.475 50 26.9V23.1C47.9398 22.7062 45.8475 22.5054 43.75 22.5C39.5 22.5 35.65 23.225 32.5 24.575V28.725C35.9823 26.9674 39.8516 26.1161 43.75 26.25ZM32.5 31.225V35.375C35.9823 33.6174 39.8516 32.7661 43.75 32.9C45.95 32.9 48.075 33.125 50 33.55V29.75C47.9398 29.3562 45.8475 29.1554 43.75 29.15C39.5 29.15 35.65 29.9 32.5 31.225ZM43.75 35.825C39.5 35.825 35.65 36.55 32.5 37.9V42.05C35.9823 40.2924 39.8516 39.4411 43.75 39.575C45.95 39.575 48.075 39.8 50 40.225V36.425C47.9416 36.019 45.848 35.818 43.75 35.825Z" fill="#1D1D3D"/>
</g>
<path d="M79.0781 35.0938C79.0781 34.6562 79.0104 34.2656 78.875 33.9219C78.75 33.5677 78.5156 33.25 78.1719 32.9688C77.8385 32.6771 77.3646 32.3958 76.75 32.125C76.1458 31.8438 75.3646 31.5521 74.4062 31.25C73.3438 30.9167 72.3542 30.5417 71.4375 30.125C70.5208 29.7083 69.7135 29.224 69.0156 28.6719C68.3281 28.1198 67.7917 27.4844 67.4062 26.7656C67.0208 26.0365 66.8281 25.1927 66.8281 24.2344C66.8281 23.2969 67.026 22.4427 67.4219 21.6719C67.8281 20.901 68.401 20.2396 69.1406 19.6875C69.8802 19.125 70.75 18.6927 71.75 18.3906C72.7604 18.0885 73.875 17.9375 75.0938 17.9375C76.7812 17.9375 78.2396 18.2448 79.4688 18.8594C80.7083 19.474 81.6667 20.3073 82.3438 21.3594C83.0208 22.4115 83.3594 23.5938 83.3594 24.9062H79.0781C79.0781 24.1979 78.9271 23.5729 78.625 23.0312C78.3333 22.4896 77.8854 22.0625 77.2812 21.75C76.6875 21.4375 75.9375 21.2812 75.0312 21.2812C74.1562 21.2812 73.4271 21.4115 72.8438 21.6719C72.2708 21.9323 71.8385 22.2865 71.5469 22.7344C71.2656 23.1823 71.125 23.6823 71.125 24.2344C71.125 24.651 71.224 25.026 71.4219 25.3594C71.6198 25.6823 71.9167 25.9896 72.3125 26.2812C72.7083 26.5625 73.1979 26.8281 73.7812 27.0781C74.375 27.3177 75.0625 27.5573 75.8438 27.7969C77.0938 28.1719 78.1875 28.5885 79.125 29.0469C80.0729 29.5052 80.8594 30.026 81.4844 30.6094C82.1198 31.1927 82.5938 31.849 82.9062 32.5781C83.2292 33.3073 83.3906 34.1354 83.3906 35.0625C83.3906 36.0417 83.1979 36.9167 82.8125 37.6875C82.4271 38.4583 81.875 39.1146 81.1562 39.6562C80.4375 40.1979 79.5729 40.6094 78.5625 40.8906C77.5625 41.1719 76.4427 41.3125 75.2031 41.3125C74.099 41.3125 73.0052 41.1667 71.9219 40.875C70.849 40.5729 69.875 40.125 69 39.5312C68.125 38.9271 67.4271 38.1667 66.9062 37.25C66.3854 36.3229 66.125 35.2396 66.125 34H70.4375C70.4375 34.7188 70.5521 35.3333 70.7812 35.8438C71.0208 36.3438 71.3542 36.7552 71.7812 37.0781C72.2188 37.3906 72.7292 37.6198 73.3125 37.7656C73.8958 37.9115 74.526 37.9844 75.2031 37.9844C76.0781 37.9844 76.7969 37.8646 77.3594 37.625C77.9323 37.375 78.3594 37.0312 78.6406 36.5938C78.9323 36.1562 79.0781 35.6562 79.0781 35.0938ZM90.7656 24.0938V41H86.625V24.0938H90.7656ZM86.3438 19.6719C86.3438 19.0573 86.5521 18.5469 86.9688 18.1406C87.3958 17.7344 87.9688 17.5312 88.6875 17.5312C89.4062 17.5312 89.974 17.7344 90.3906 18.1406C90.8177 18.5469 91.0312 19.0573 91.0312 19.6719C91.0312 20.276 90.8177 20.7812 90.3906 21.1875C89.974 21.5938 89.4062 21.7969 88.6875 21.7969C87.9688 21.7969 87.3958 21.5938 86.9688 21.1875C86.5521 20.7812 86.3438 20.276 86.3438 19.6719ZM105.453 24.0938H109.203V40.4844C109.203 42.0156 108.87 43.3125 108.203 44.375C107.547 45.4479 106.625 46.2604 105.438 46.8125C104.25 47.375 102.87 47.6562 101.297 47.6562C100.62 47.6562 99.8854 47.5625 99.0938 47.375C98.3125 47.1875 97.5573 46.8906 96.8281 46.4844C96.1094 46.0885 95.5104 45.5729 95.0312 44.9375L96.8906 42.5C97.4531 43.1562 98.0885 43.651 98.7969 43.9844C99.5052 44.3281 100.271 44.5 101.094 44.5C101.927 44.5 102.635 44.3438 103.219 44.0312C103.812 43.7292 104.266 43.2812 104.578 42.6875C104.901 42.1042 105.062 41.3854 105.062 40.5312V27.9531L105.453 24.0938ZM94.0312 32.75V32.4219C94.0312 31.1302 94.1875 29.9583 94.5 28.9062C94.8125 27.8438 95.2604 26.9323 95.8438 26.1719C96.4375 25.4115 97.151 24.8229 97.9844 24.4062C98.8281 23.9896 99.776 23.7812 100.828 23.7812C101.943 23.7812 102.88 23.9844 103.641 24.3906C104.411 24.7969 105.047 25.375 105.547 26.125C106.057 26.875 106.453 27.7656 106.734 28.7969C107.026 29.8177 107.25 30.9427 107.406 32.1719V33.0625C107.26 34.2604 107.026 35.3594 106.703 36.3594C106.391 37.3594 105.974 38.2344 105.453 38.9844C104.932 39.724 104.286 40.2969 103.516 40.7031C102.745 41.1094 101.839 41.3125 100.797 41.3125C99.7552 41.3125 98.8177 41.099 97.9844 40.6719C97.151 40.2448 96.4375 39.6458 95.8438 38.875C95.2604 38.1042 94.8125 37.1979 94.5 36.1562C94.1875 35.1146 94.0312 33.9792 94.0312 32.75ZM98.1562 32.4219V32.75C98.1562 33.4792 98.2292 34.1615 98.375 34.7969C98.5208 35.4323 98.7448 35.9948 99.0469 36.4844C99.349 36.9635 99.7292 37.3385 100.188 37.6094C100.646 37.8802 101.193 38.0156 101.828 38.0156C102.682 38.0156 103.38 37.8385 103.922 37.4844C104.474 37.1198 104.891 36.625 105.172 36C105.464 35.3646 105.651 34.651 105.734 33.8594V31.4062C105.682 30.7812 105.568 30.2031 105.391 29.6719C105.224 29.1406 104.99 28.6823 104.688 28.2969C104.385 27.9115 104 27.6094 103.531 27.3906C103.062 27.1719 102.505 27.0625 101.859 27.0625C101.234 27.0625 100.688 27.2031 100.219 27.4844C99.75 27.7552 99.3646 28.1354 99.0625 28.625C98.7604 29.1146 98.5312 29.6823 98.375 30.3281C98.2292 30.974 98.1562 31.6719 98.1562 32.4219ZM117.047 27.5469V41H112.922V24.0938H116.828L117.047 27.5469ZM122.188 23.9844L122.125 27.8281C121.896 27.7865 121.635 27.7552 121.344 27.7344C121.062 27.7135 120.797 27.7031 120.547 27.7031C119.911 27.7031 119.354 27.7917 118.875 27.9688C118.396 28.1354 117.995 28.3802 117.672 28.7031C117.359 29.026 117.12 29.4219 116.953 29.8906C116.786 30.349 116.693 30.8698 116.672 31.4531L115.781 31.3438C115.781 30.2708 115.891 29.276 116.109 28.3594C116.328 27.4427 116.646 26.6406 117.062 25.9531C117.479 25.2656 118 24.7344 118.625 24.3594C119.26 23.974 119.99 23.7812 120.812 23.7812C121.042 23.7812 121.286 23.8021 121.547 23.8438C121.818 23.875 122.031 23.9219 122.188 23.9844ZM128.828 24.0938V41H124.688V24.0938H128.828ZM124.406 19.6719C124.406 19.0573 124.615 18.5469 125.031 18.1406C125.458 17.7344 126.031 17.5312 126.75 17.5312C127.469 17.5312 128.036 17.7344 128.453 18.1406C128.88 18.5469 129.094 19.0573 129.094 19.6719C129.094 20.276 128.88 20.7812 128.453 21.1875C128.036 21.5938 127.469 21.7969 126.75 21.7969C126.031 21.7969 125.458 21.5938 125.031 21.1875C124.615 20.7812 124.406 20.276 124.406 19.6719ZM142.906 37.4062V17H147.062V41H143.312L142.906 37.4062ZM132.047 32.75V32.4219C132.047 31.1302 132.193 29.9583 132.484 28.9062C132.786 27.8438 133.224 26.9323 133.797 26.1719C134.37 25.4115 135.062 24.8229 135.875 24.4062C136.698 23.9896 137.63 23.7812 138.672 23.7812C139.682 23.7812 140.562 23.9844 141.312 24.3906C142.073 24.7969 142.719 25.375 143.25 26.125C143.792 26.875 144.224 27.7656 144.547 28.7969C144.87 29.8177 145.104 30.9427 145.25 32.1719V33.0625C145.104 34.2604 144.87 35.3594 144.547 36.3594C144.224 37.3594 143.792 38.2344 143.25 38.9844C142.719 39.724 142.073 40.2969 141.312 40.7031C140.552 41.1094 139.661 41.3125 138.641 41.3125C137.609 41.3125 136.682 41.099 135.859 40.6719C135.047 40.2448 134.354 39.6458 133.781 38.875C133.219 38.1042 132.786 37.1979 132.484 36.1562C132.193 35.1146 132.047 33.9792 132.047 32.75ZM136.188 32.4219V32.75C136.188 33.4792 136.25 34.1615 136.375 34.7969C136.5 35.4323 136.703 35.9948 136.984 36.4844C137.266 36.9635 137.625 37.3385 138.062 37.6094C138.51 37.8802 139.052 38.0156 139.688 38.0156C140.5 38.0156 141.167 37.8385 141.688 37.4844C142.219 37.1198 142.63 36.625 142.922 36C143.214 35.3646 143.401 34.651 143.484 33.8594V31.4062C143.443 30.7812 143.333 30.2031 143.156 29.6719C142.99 29.1406 142.75 28.6823 142.438 28.2969C142.135 27.9115 141.76 27.6094 141.312 27.3906C140.865 27.1719 140.333 27.0625 139.719 27.0625C139.083 27.0625 138.542 27.2031 138.094 27.4844C137.646 27.7552 137.281 28.1354 137 28.625C136.719 29.1146 136.51 29.6823 136.375 30.3281C136.25 30.974 136.188 31.6719 136.188 32.4219ZM168.906 37.4062V17H173.062V41H169.312L168.906 37.4062ZM158.047 32.75V32.4219C158.047 31.1302 158.193 29.9583 158.484 28.9062C158.786 27.8438 159.224 26.9323 159.797 26.1719C160.37 25.4115 161.062 24.8229 161.875 24.4062C162.698 23.9896 163.63 23.7812 164.672 23.7812C165.682 23.7812 166.562 23.9844 167.312 24.3906C168.073 24.7969 168.719 25.375 169.25 26.125C169.792 26.875 170.224 27.7656 170.547 28.7969C170.87 29.8177 171.104 30.9427 171.25 32.1719V33.0625C171.104 34.2604 170.87 35.3594 170.547 36.3594C170.224 37.3594 169.792 38.2344 169.25 38.9844C168.719 39.724 168.073 40.2969 167.312 40.7031C166.552 41.1094 165.661 41.3125 164.641 41.3125C163.609 41.3125 162.682 41.099 161.859 40.6719C161.047 40.2448 160.354 39.6458 159.781 38.875C159.219 38.1042 158.786 37.1979 158.484 36.1562C158.193 35.1146 158.047 33.9792 158.047 32.75ZM162.188 32.4219V32.75C162.188 33.4792 162.25 34.1615 162.375 34.7969C162.5 35.4323 162.703 35.9948 162.984 36.4844C163.266 36.9635 163.625 37.3385 164.062 37.6094C164.51 37.8802 165.052 38.0156 165.688 38.0156C166.5 38.0156 167.167 37.8385 167.688 37.4844C168.219 37.1198 168.63 36.625 168.922 36C169.214 35.3646 169.401 34.651 169.484 33.8594V31.4062C169.443 30.7812 169.333 30.2031 169.156 29.6719C168.99 29.1406 168.75 28.6823 168.438 28.2969C168.135 27.9115 167.76 27.6094 167.312 27.3906C166.865 27.1719 166.333 27.0625 165.719 27.0625C165.083 27.0625 164.542 27.2031 164.094 27.4844C163.646 27.7552 163.281 28.1354 163 28.625C162.719 29.1146 162.51 29.6823 162.375 30.3281C162.25 30.974 162.188 31.6719 162.188 32.4219ZM176.062 32.7188V32.3906C176.062 31.151 176.24 30.0104 176.594 28.9688C176.948 27.9167 177.464 27.0052 178.141 26.2344C178.818 25.4635 179.646 24.8646 180.625 24.4375C181.604 24 182.719 23.7812 183.969 23.7812C185.24 23.7812 186.365 24 187.344 24.4375C188.333 24.8646 189.167 25.4635 189.844 26.2344C190.521 27.0052 191.036 27.9167 191.391 28.9688C191.745 30.0104 191.922 31.151 191.922 32.3906V32.7188C191.922 33.9479 191.745 35.0885 191.391 36.1406C191.036 37.1823 190.521 38.0938 189.844 38.875C189.167 39.6458 188.339 40.2448 187.359 40.6719C186.38 41.099 185.26 41.3125 184 41.3125C182.75 41.3125 181.63 41.099 180.641 40.6719C179.651 40.2448 178.818 39.6458 178.141 38.875C177.464 38.0938 176.948 37.1823 176.594 36.1406C176.24 35.0885 176.062 33.9479 176.062 32.7188ZM180.188 32.3906V32.7188C180.188 33.4583 180.26 34.151 180.406 34.7969C180.552 35.4427 180.776 36.0104 181.078 36.5C181.38 36.9896 181.771 37.375 182.25 37.6562C182.74 37.9271 183.323 38.0625 184 38.0625C184.667 38.0625 185.24 37.9271 185.719 37.6562C186.198 37.375 186.589 36.9896 186.891 36.5C187.203 36.0104 187.432 35.4427 187.578 34.7969C187.724 34.151 187.797 33.4583 187.797 32.7188V32.3906C187.797 31.6615 187.724 30.9792 187.578 30.3438C187.432 29.6979 187.203 29.1302 186.891 28.6406C186.589 28.1406 186.193 27.75 185.703 27.4688C185.224 27.1771 184.646 27.0312 183.969 27.0312C183.302 27.0312 182.729 27.1771 182.25 27.4688C181.771 27.75 181.38 28.1406 181.078 28.6406C180.776 29.1302 180.552 29.6979 180.406 30.3438C180.26 30.9792 180.188 31.6615 180.188 32.3906ZM201.859 38.0625C202.443 38.0625 202.964 37.9479 203.422 37.7188C203.88 37.4896 204.245 37.1667 204.516 36.75C204.797 36.3333 204.948 35.849 204.969 35.2969H208.859C208.839 36.4427 208.516 37.4688 207.891 38.375C207.266 39.2812 206.432 40 205.391 40.5312C204.359 41.0521 203.203 41.3125 201.922 41.3125C200.62 41.3125 199.484 41.0938 198.516 40.6562C197.547 40.2188 196.74 39.6094 196.094 38.8281C195.458 38.0469 194.979 37.1406 194.656 36.1094C194.344 35.0781 194.188 33.974 194.188 32.7969V32.2969C194.188 31.1198 194.344 30.0156 194.656 28.9844C194.979 27.9531 195.458 27.0469 196.094 26.2656C196.74 25.4844 197.547 24.875 198.516 24.4375C199.484 24 200.615 23.7812 201.906 23.7812C203.271 23.7812 204.469 24.0469 205.5 24.5781C206.542 25.1094 207.354 25.8594 207.938 26.8281C208.531 27.7969 208.839 28.9375 208.859 30.25H204.969C204.948 29.6458 204.812 29.1042 204.562 28.625C204.312 28.1458 203.958 27.7604 203.5 27.4688C203.042 27.1771 202.484 27.0312 201.828 27.0312C201.13 27.0312 200.547 27.1771 200.078 27.4688C199.62 27.7604 199.26 28.1615 199 28.6719C198.75 29.1719 198.573 29.7344 198.469 30.3594C198.375 30.974 198.328 31.6198 198.328 32.2969V32.7969C198.328 33.4844 198.375 34.1406 198.469 34.7656C198.573 35.3906 198.75 35.9531 199 36.4531C199.26 36.9427 199.62 37.3333 200.078 37.625C200.547 37.9167 201.141 38.0625 201.859 38.0625ZM221.672 36.9844V24.0938H225.828V41H221.922L221.672 36.9844ZM222.203 33.4844L223.484 33.4531C223.484 34.5885 223.359 35.6354 223.109 36.5938C222.859 37.5521 222.469 38.3854 221.938 39.0938C221.417 39.7917 220.755 40.3385 219.953 40.7344C219.151 41.1198 218.203 41.3125 217.109 41.3125C216.276 41.3125 215.516 41.1979 214.828 40.9688C214.141 40.7292 213.547 40.3594 213.047 39.8594C212.557 39.349 212.177 38.6979 211.906 37.9062C211.635 37.1042 211.5 36.1406 211.5 35.0156V24.0938H215.625V35.0469C215.625 35.6094 215.688 36.0781 215.812 36.4531C215.948 36.8281 216.13 37.1354 216.359 37.375C216.599 37.6042 216.875 37.7708 217.188 37.875C217.51 37.9688 217.854 38.0156 218.219 38.0156C219.219 38.0156 220.005 37.8177 220.578 37.4219C221.161 37.0156 221.578 36.474 221.828 35.7969C222.078 35.1094 222.203 34.3385 222.203 33.4844ZM233.594 27.5625V41H229.469V24.0938H233.359L233.594 27.5625ZM232.984 31.9375H231.719C231.719 30.7604 231.859 29.6771 232.141 28.6875C232.432 27.6979 232.859 26.8385 233.422 26.1094C233.984 25.3698 234.677 24.7969 235.5 24.3906C236.333 23.9844 237.297 23.7812 238.391 23.7812C239.151 23.7812 239.849 23.8958 240.484 24.125C241.12 24.3438 241.667 24.6927 242.125 25.1719C242.594 25.6406 242.953 26.2552 243.203 27.0156C243.453 27.7656 243.578 28.6667 243.578 29.7188V41H239.453V30.1406C239.453 29.349 239.339 28.7292 239.109 28.2812C238.891 27.8333 238.573 27.5208 238.156 27.3438C237.74 27.1562 237.24 27.0625 236.656 27.0625C236.01 27.0625 235.453 27.1927 234.984 27.4531C234.526 27.7031 234.146 28.0521 233.844 28.5C233.552 28.9479 233.333 29.4635 233.188 30.0469C233.052 30.6302 232.984 31.2604 232.984 31.9375ZM243.266 31.1719L241.562 31.4844C241.573 30.4219 241.719 29.4271 242 28.5C242.281 27.5625 242.693 26.7448 243.234 26.0469C243.786 25.3385 244.469 24.7865 245.281 24.3906C246.104 23.9844 247.052 23.7812 248.125 23.7812C248.958 23.7812 249.708 23.901 250.375 24.1406C251.052 24.3698 251.63 24.7396 252.109 25.25C252.589 25.75 252.953 26.401 253.203 27.2031C253.464 28.0052 253.594 28.9844 253.594 30.1406V41H249.438V30.125C249.438 29.3021 249.323 28.6719 249.094 28.2344C248.875 27.7969 248.557 27.4948 248.141 27.3281C247.724 27.151 247.234 27.0625 246.672 27.0625C246.099 27.0625 245.599 27.1719 245.172 27.3906C244.755 27.599 244.401 27.8906 244.109 28.2656C243.828 28.6406 243.615 29.0781 243.469 29.5781C243.333 30.0677 243.266 30.599 243.266 31.1719ZM264.891 41.3125C263.609 41.3125 262.458 41.1042 261.438 40.6875C260.417 40.2708 259.547 39.6927 258.828 38.9531C258.12 38.2031 257.573 37.3333 257.188 36.3438C256.812 35.3438 256.625 34.2708 256.625 33.125V32.5C256.625 31.1979 256.812 30.0156 257.188 28.9531C257.562 27.8802 258.094 26.9583 258.781 26.1875C259.469 25.4167 260.292 24.8229 261.25 24.4062C262.208 23.9896 263.266 23.7812 264.422 23.7812C265.62 23.7812 266.677 23.9844 267.594 24.3906C268.51 24.7865 269.276 25.349 269.891 26.0781C270.505 26.8073 270.969 27.6823 271.281 28.7031C271.594 29.7135 271.75 30.8333 271.75 32.0625V33.7969H258.5V30.9531H267.688V30.6406C267.667 29.9844 267.542 29.3854 267.312 28.8438C267.083 28.2917 266.729 27.8542 266.25 27.5312C265.771 27.1979 265.151 27.0312 264.391 27.0312C263.776 27.0312 263.24 27.1667 262.781 27.4375C262.333 27.6979 261.958 28.0729 261.656 28.5625C261.365 29.0417 261.146 29.6146 261 30.2812C260.854 30.9479 260.781 31.6875 260.781 32.5V33.125C260.781 33.8333 260.875 34.4896 261.062 35.0938C261.26 35.6979 261.547 36.224 261.922 36.6719C262.307 37.1094 262.766 37.4531 263.297 37.7031C263.839 37.9427 264.453 38.0625 265.141 38.0625C266.005 38.0625 266.786 37.8958 267.484 37.5625C268.193 37.2188 268.807 36.7135 269.328 36.0469L271.406 38.2031C271.052 38.724 270.573 39.224 269.969 39.7031C269.375 40.1823 268.656 40.5729 267.812 40.875C266.969 41.1667 265.995 41.3125 264.891 41.3125ZM278.562 27.7031V41H274.438V24.0938H278.312L278.562 27.7031ZM277.906 31.9375H276.688C276.698 30.7083 276.865 29.5938 277.188 28.5938C277.51 27.5938 277.964 26.7344 278.547 26.0156C279.141 25.2969 279.844 24.7448 280.656 24.3594C281.469 23.974 282.375 23.7812 283.375 23.7812C284.188 23.7812 284.922 23.8958 285.578 24.125C286.234 24.3542 286.797 24.7188 287.266 25.2188C287.745 25.7188 288.109 26.375 288.359 27.1875C288.62 27.9896 288.75 28.9792 288.75 30.1562V41H284.594V30.125C284.594 29.3542 284.479 28.7448 284.25 28.2969C284.031 27.849 283.708 27.5312 283.281 27.3438C282.865 27.1562 282.349 27.0625 281.734 27.0625C281.099 27.0625 280.542 27.1927 280.062 27.4531C279.594 27.7031 279.198 28.0521 278.875 28.5C278.562 28.9479 278.323 29.4635 278.156 30.0469C277.99 30.6302 277.906 31.2604 277.906 31.9375ZM300.391 24.0938V27.0625H290.703V24.0938H300.391ZM293.297 19.9375H297.438V36.125C297.438 36.625 297.505 37.0104 297.641 37.2812C297.776 37.5521 297.979 37.7344 298.25 37.8281C298.521 37.9219 298.844 37.9688 299.219 37.9688C299.49 37.9688 299.74 37.9531 299.969 37.9219C300.198 37.8906 300.391 37.8594 300.547 37.8281L300.562 40.9219C300.219 41.0365 299.828 41.1302 299.391 41.2031C298.964 41.276 298.479 41.3125 297.938 41.3125C297.01 41.3125 296.198 41.1562 295.5 40.8438C294.802 40.5208 294.26 40.0052 293.875 39.2969C293.49 38.5781 293.297 37.6302 293.297 36.4531V19.9375ZM312.453 37.4062V29.6094C312.453 29.0365 312.354 28.5417 312.156 28.125C311.958 27.7083 311.656 27.3854 311.25 27.1562C310.844 26.9271 310.328 26.8125 309.703 26.8125C309.151 26.8125 308.667 26.9062 308.25 27.0938C307.844 27.2812 307.531 27.5469 307.312 27.8906C307.094 28.224 306.984 28.6094 306.984 29.0469H302.844C302.844 28.349 303.01 27.6875 303.344 27.0625C303.677 26.4271 304.151 25.8646 304.766 25.375C305.391 24.875 306.135 24.4844 307 24.2031C307.875 23.9219 308.854 23.7812 309.938 23.7812C311.219 23.7812 312.359 24 313.359 24.4375C314.37 24.8646 315.161 25.5104 315.734 26.375C316.318 27.2396 316.609 28.3281 316.609 29.6406V37.0156C316.609 37.8594 316.661 38.5833 316.766 39.1875C316.88 39.7812 317.047 40.2969 317.266 40.7344V41H313.062C312.865 40.5729 312.714 40.0312 312.609 39.375C312.505 38.7083 312.453 38.0521 312.453 37.4062ZM313.031 30.7031L313.062 33.1562H310.453C309.807 33.1562 309.24 33.224 308.75 33.3594C308.26 33.4844 307.859 33.6719 307.547 33.9219C307.234 34.1615 307 34.4531 306.844 34.7969C306.688 35.1302 306.609 35.5104 306.609 35.9375C306.609 36.3542 306.703 36.7292 306.891 37.0625C307.089 37.3958 307.37 37.6615 307.734 37.8594C308.109 38.0469 308.547 38.1406 309.047 38.1406C309.776 38.1406 310.411 37.9948 310.953 37.7031C311.495 37.401 311.917 37.0365 312.219 36.6094C312.521 36.1823 312.682 35.776 312.703 35.3906L313.891 37.1719C313.745 37.599 313.526 38.0521 313.234 38.5312C312.943 39.0104 312.568 39.4583 312.109 39.875C311.651 40.2917 311.099 40.6354 310.453 40.9062C309.807 41.1771 309.057 41.3125 308.203 41.3125C307.109 41.3125 306.13 41.0938 305.266 40.6562C304.401 40.2188 303.719 39.6198 303.219 38.8594C302.719 38.099 302.469 37.2344 302.469 36.2656C302.469 35.3698 302.635 34.5781 302.969 33.8906C303.302 33.2031 303.797 32.625 304.453 32.1562C305.109 31.6771 305.922 31.3177 306.891 31.0781C307.87 30.8281 308.99 30.7031 310.25 30.7031H313.031ZM328.328 24.0938V27.0625H318.641V24.0938H328.328ZM321.234 19.9375H325.375V36.125C325.375 36.625 325.443 37.0104 325.578 37.2812C325.714 37.5521 325.917 37.7344 326.188 37.8281C326.458 37.9219 326.781 37.9688 327.156 37.9688C327.427 37.9688 327.677 37.9531 327.906 37.9219C328.135 37.8906 328.328 37.8594 328.484 37.8281L328.5 40.9219C328.156 41.0365 327.766 41.1302 327.328 41.2031C326.901 41.276 326.417 41.3125 325.875 41.3125C324.948 41.3125 324.135 41.1562 323.438 40.8438C322.74 40.5208 322.198 40.0052 321.812 39.2969C321.427 38.5781 321.234 37.6302 321.234 36.4531V19.9375ZM335.453 24.0938V41H331.312V24.0938H335.453ZM331.031 19.6719C331.031 19.0573 331.24 18.5469 331.656 18.1406C332.083 17.7344 332.656 17.5312 333.375 17.5312C334.094 17.5312 334.661 17.7344 335.078 18.1406C335.505 18.5469 335.719 19.0573 335.719 19.6719C335.719 20.276 335.505 20.7812 335.078 21.1875C334.661 21.5938 334.094 21.7969 333.375 21.7969C332.656 21.7969 332.083 21.5938 331.656 21.1875C331.24 20.7812 331.031 20.276 331.031 19.6719ZM338.656 32.7188V32.3906C338.656 31.151 338.833 30.0104 339.188 28.9688C339.542 27.9167 340.057 27.0052 340.734 26.2344C341.411 25.4635 342.24 24.8646 343.219 24.4375C344.198 24 345.312 23.7812 346.562 23.7812C347.833 23.7812 348.958 24 349.938 24.4375C350.927 24.8646 351.76 25.4635 352.438 26.2344C353.115 27.0052 353.63 27.9167 353.984 28.9688C354.339 30.0104 354.516 31.151 354.516 32.3906V32.7188C354.516 33.9479 354.339 35.0885 353.984 36.1406C353.63 37.1823 353.115 38.0938 352.438 38.875C351.76 39.6458 350.932 40.2448 349.953 40.6719C348.974 41.099 347.854 41.3125 346.594 41.3125C345.344 41.3125 344.224 41.099 343.234 40.6719C342.245 40.2448 341.411 39.6458 340.734 38.875C340.057 38.0938 339.542 37.1823 339.188 36.1406C338.833 35.0885 338.656 33.9479 338.656 32.7188ZM342.781 32.3906V32.7188C342.781 33.4583 342.854 34.151 343 34.7969C343.146 35.4427 343.37 36.0104 343.672 36.5C343.974 36.9896 344.365 37.375 344.844 37.6562C345.333 37.9271 345.917 38.0625 346.594 38.0625C347.26 38.0625 347.833 37.9271 348.312 37.6562C348.792 37.375 349.182 36.9896 349.484 36.5C349.797 36.0104 350.026 35.4427 350.172 34.7969C350.318 34.151 350.391 33.4583 350.391 32.7188V32.3906C350.391 31.6615 350.318 30.9792 350.172 30.3438C350.026 29.6979 349.797 29.1302 349.484 28.6406C349.182 28.1406 348.786 27.75 348.297 27.4688C347.818 27.1771 347.24 27.0312 346.562 27.0312C345.896 27.0312 345.323 27.1771 344.844 27.4688C344.365 27.75 343.974 28.1406 343.672 28.6406C343.37 29.1302 343.146 29.6979 343 30.3438C342.854 30.9792 342.781 31.6615 342.781 32.3906ZM361.562 27.7031V41H357.438V24.0938H361.312L361.562 27.7031ZM360.906 31.9375H359.688C359.698 30.7083 359.865 29.5938 360.188 28.5938C360.51 27.5938 360.964 26.7344 361.547 26.0156C362.141 25.2969 362.844 24.7448 363.656 24.3594C364.469 23.974 365.375 23.7812 366.375 23.7812C367.188 23.7812 367.922 23.8958 368.578 24.125C369.234 24.3542 369.797 24.7188 370.266 25.2188C370.745 25.7188 371.109 26.375 371.359 27.1875C371.62 27.9896 371.75 28.9792 371.75 30.1562V41H367.594V30.125C367.594 29.3542 367.479 28.7448 367.25 28.2969C367.031 27.849 366.708 27.5312 366.281 27.3438C365.865 27.1562 365.349 27.0625 364.734 27.0625C364.099 27.0625 363.542 27.1927 363.062 27.4531C362.594 27.7031 362.198 28.0521 361.875 28.5C361.562 28.9479 361.323 29.4635 361.156 30.0469C360.99 30.6302 360.906 31.2604 360.906 31.9375Z" fill="black"/>
<defs>
<clipPath id="clip0_1634_9785">
<rect width="60" height="60" fill="white"/>
</clipPath>
</defs>
</svg>
