<svg width="297" height="60" viewBox="0 0 297 60" fill="none" xmlns="http://www.w3.org/2000/svg">
<g clip-path="url(#clip0_1634_9780)">
<path d="M30 5C16.2 5 5 16.2 5 30C5 43.8 16.2 55 30 55C43.8 55 55 43.8 55 30C55 16.2 43.8 5 30 5ZM32.5 47.5H27.5V42.5H32.5V47.5ZM37.675 28.125L35.425 30.425C33.625 32.25 32.5 33.75 32.5 37.5H27.5V36.25C27.5 33.5 28.625 31 30.425 29.175L33.525 26.025C34.45 25.125 35 23.875 35 22.5C35 19.75 32.75 17.5 30 17.5C27.25 17.5 25 19.75 25 22.5H20C20 16.975 24.475 12.5 30 12.5C35.525 12.5 40 16.975 40 22.5C40 24.7 39.1 26.7 37.675 28.125Z" fill="#1D1D3D"/>
</g>
<path d="M80.4844 33.5156H84.7812C84.6667 35.0365 84.2448 36.3854 83.5156 37.5625C82.7865 38.7292 81.7708 39.6458 80.4688 40.3125C79.1667 40.9792 77.5885 41.3125 75.7344 41.3125C74.3073 41.3125 73.0208 41.0625 71.875 40.5625C70.7396 40.0521 69.7656 39.3281 68.9531 38.3906C68.151 37.4427 67.5365 36.3073 67.1094 34.9844C66.6823 33.651 66.4688 32.1562 66.4688 30.5V28.7656C66.4688 27.1094 66.6875 25.6146 67.125 24.2812C67.5625 22.9479 68.1875 21.8125 69 20.875C69.8229 19.9271 70.8073 19.1979 71.9531 18.6875C73.1094 18.1771 74.401 17.9219 75.8281 17.9219C77.6823 17.9219 79.25 18.2656 80.5312 18.9531C81.8125 19.6302 82.8073 20.5625 83.5156 21.75C84.224 22.9375 84.651 24.3021 84.7969 25.8438H80.5C80.4167 24.8854 80.2083 24.0729 79.875 23.4062C79.5521 22.7396 79.0625 22.2344 78.4062 21.8906C77.7604 21.5365 76.901 21.3594 75.8281 21.3594C74.9948 21.3594 74.2604 21.5156 73.625 21.8281C73 22.1406 72.4792 22.6094 72.0625 23.2344C71.6458 23.849 71.3333 24.6198 71.125 25.5469C70.9167 26.4635 70.8125 27.526 70.8125 28.7344V30.5C70.8125 31.6562 70.9062 32.6927 71.0938 33.6094C71.2812 34.526 71.5729 35.3021 71.9688 35.9375C72.3646 36.5729 72.875 37.0573 73.5 37.3906C74.125 37.724 74.8698 37.8906 75.7344 37.8906C76.7865 37.8906 77.6406 37.724 78.2969 37.3906C78.9635 37.0573 79.4688 36.5677 79.8125 35.9219C80.1667 35.276 80.3906 34.474 80.4844 33.5156ZM87.0625 32.7188V32.3906C87.0625 31.151 87.2396 30.0104 87.5938 28.9688C87.9479 27.9167 88.4635 27.0052 89.1406 26.2344C89.8177 25.4635 90.6458 24.8646 91.625 24.4375C92.6042 24 93.7188 23.7812 94.9688 23.7812C96.2396 23.7812 97.3646 24 98.3438 24.4375C99.3333 24.8646 100.167 25.4635 100.844 26.2344C101.521 27.0052 102.036 27.9167 102.391 28.9688C102.745 30.0104 102.922 31.151 102.922 32.3906V32.7188C102.922 33.9479 102.745 35.0885 102.391 36.1406C102.036 37.1823 101.521 38.0938 100.844 38.875C100.167 39.6458 99.3385 40.2448 98.3594 40.6719C97.3802 41.099 96.2604 41.3125 95 41.3125C93.75 41.3125 92.6302 41.099 91.6406 40.6719C90.651 40.2448 89.8177 39.6458 89.1406 38.875C88.4635 38.0938 87.9479 37.1823 87.5938 36.1406C87.2396 35.0885 87.0625 33.9479 87.0625 32.7188ZM91.1875 32.3906V32.7188C91.1875 33.4583 91.2604 34.151 91.4062 34.7969C91.5521 35.4427 91.776 36.0104 92.0781 36.5C92.3802 36.9896 92.7708 37.375 93.25 37.6562C93.7396 37.9271 94.3229 38.0625 95 38.0625C95.6667 38.0625 96.2396 37.9271 96.7188 37.6562C97.1979 37.375 97.5885 36.9896 97.8906 36.5C98.2031 36.0104 98.4323 35.4427 98.5781 34.7969C98.724 34.151 98.7969 33.4583 98.7969 32.7188V32.3906C98.7969 31.6615 98.724 30.9792 98.5781 30.3438C98.4323 29.6979 98.2031 29.1302 97.8906 28.6406C97.5885 28.1406 97.1927 27.75 96.7031 27.4688C96.224 27.1771 95.6458 27.0312 94.9688 27.0312C94.3021 27.0312 93.7292 27.1771 93.25 27.4688C92.7708 27.75 92.3802 28.1406 92.0781 28.6406C91.776 29.1302 91.5521 29.6979 91.4062 30.3438C91.2604 30.9792 91.1875 31.6615 91.1875 32.3906ZM109.969 27.7031V41H105.844V24.0938H109.719L109.969 27.7031ZM109.312 31.9375H108.094C108.104 30.7083 108.271 29.5938 108.594 28.5938C108.917 27.5938 109.37 26.7344 109.953 26.0156C110.547 25.2969 111.25 24.7448 112.062 24.3594C112.875 23.974 113.781 23.7812 114.781 23.7812C115.594 23.7812 116.328 23.8958 116.984 24.125C117.641 24.3542 118.203 24.7188 118.672 25.2188C119.151 25.7188 119.516 26.375 119.766 27.1875C120.026 27.9896 120.156 28.9792 120.156 30.1562V41H116V30.125C116 29.3542 115.885 28.7448 115.656 28.2969C115.438 27.849 115.115 27.5312 114.688 27.3438C114.271 27.1562 113.755 27.0625 113.141 27.0625C112.505 27.0625 111.948 27.1927 111.469 27.4531C111 27.7031 110.604 28.0521 110.281 28.5C109.969 28.9479 109.729 29.4635 109.562 30.0469C109.396 30.6302 109.312 31.2604 109.312 31.9375ZM131.797 24.0938V27.0625H122.109V24.0938H131.797ZM124.703 19.9375H128.844V36.125C128.844 36.625 128.911 37.0104 129.047 37.2812C129.182 37.5521 129.385 37.7344 129.656 37.8281C129.927 37.9219 130.25 37.9688 130.625 37.9688C130.896 37.9688 131.146 37.9531 131.375 37.9219C131.604 37.8906 131.797 37.8594 131.953 37.8281L131.969 40.9219C131.625 41.0365 131.234 41.1302 130.797 41.2031C130.37 41.276 129.885 41.3125 129.344 41.3125C128.417 41.3125 127.604 41.1562 126.906 40.8438C126.208 40.5208 125.667 40.0052 125.281 39.2969C124.896 38.5781 124.703 37.6302 124.703 36.4531V19.9375ZM143.859 37.4062V29.6094C143.859 29.0365 143.76 28.5417 143.562 28.125C143.365 27.7083 143.062 27.3854 142.656 27.1562C142.25 26.9271 141.734 26.8125 141.109 26.8125C140.557 26.8125 140.073 26.9062 139.656 27.0938C139.25 27.2812 138.938 27.5469 138.719 27.8906C138.5 28.224 138.391 28.6094 138.391 29.0469H134.25C134.25 28.349 134.417 27.6875 134.75 27.0625C135.083 26.4271 135.557 25.8646 136.172 25.375C136.797 24.875 137.542 24.4844 138.406 24.2031C139.281 23.9219 140.26 23.7812 141.344 23.7812C142.625 23.7812 143.766 24 144.766 24.4375C145.776 24.8646 146.568 25.5104 147.141 26.375C147.724 27.2396 148.016 28.3281 148.016 29.6406V37.0156C148.016 37.8594 148.068 38.5833 148.172 39.1875C148.286 39.7812 148.453 40.2969 148.672 40.7344V41H144.469C144.271 40.5729 144.12 40.0312 144.016 39.375C143.911 38.7083 143.859 38.0521 143.859 37.4062ZM144.438 30.7031L144.469 33.1562H141.859C141.214 33.1562 140.646 33.224 140.156 33.3594C139.667 33.4844 139.266 33.6719 138.953 33.9219C138.641 34.1615 138.406 34.4531 138.25 34.7969C138.094 35.1302 138.016 35.5104 138.016 35.9375C138.016 36.3542 138.109 36.7292 138.297 37.0625C138.495 37.3958 138.776 37.6615 139.141 37.8594C139.516 38.0469 139.953 38.1406 140.453 38.1406C141.182 38.1406 141.818 37.9948 142.359 37.7031C142.901 37.401 143.323 37.0365 143.625 36.6094C143.927 36.1823 144.089 35.776 144.109 35.3906L145.297 37.1719C145.151 37.599 144.932 38.0521 144.641 38.5312C144.349 39.0104 143.974 39.4583 143.516 39.875C143.057 40.2917 142.505 40.6354 141.859 40.9062C141.214 41.1771 140.464 41.3125 139.609 41.3125C138.516 41.3125 137.536 41.0938 136.672 40.6562C135.807 40.2188 135.125 39.6198 134.625 38.8594C134.125 38.099 133.875 37.2344 133.875 36.2656C133.875 35.3698 134.042 34.5781 134.375 33.8906C134.708 33.2031 135.203 32.625 135.859 32.1562C136.516 31.6771 137.328 31.3177 138.297 31.0781C139.276 30.8281 140.396 30.7031 141.656 30.7031H144.438ZM158.672 38.0625C159.255 38.0625 159.776 37.9479 160.234 37.7188C160.693 37.4896 161.057 37.1667 161.328 36.75C161.609 36.3333 161.76 35.849 161.781 35.2969H165.672C165.651 36.4427 165.328 37.4688 164.703 38.375C164.078 39.2812 163.245 40 162.203 40.5312C161.172 41.0521 160.016 41.3125 158.734 41.3125C157.432 41.3125 156.297 41.0938 155.328 40.6562C154.359 40.2188 153.552 39.6094 152.906 38.8281C152.271 38.0469 151.792 37.1406 151.469 36.1094C151.156 35.0781 151 33.974 151 32.7969V32.2969C151 31.1198 151.156 30.0156 151.469 28.9844C151.792 27.9531 152.271 27.0469 152.906 26.2656C153.552 25.4844 154.359 24.875 155.328 24.4375C156.297 24 157.427 23.7812 158.719 23.7812C160.083 23.7812 161.281 24.0469 162.312 24.5781C163.354 25.1094 164.167 25.8594 164.75 26.8281C165.344 27.7969 165.651 28.9375 165.672 30.25H161.781C161.76 29.6458 161.625 29.1042 161.375 28.625C161.125 28.1458 160.771 27.7604 160.312 27.4688C159.854 27.1771 159.297 27.0312 158.641 27.0312C157.943 27.0312 157.359 27.1771 156.891 27.4688C156.432 27.7604 156.073 28.1615 155.812 28.6719C155.562 29.1719 155.385 29.7344 155.281 30.3594C155.188 30.974 155.141 31.6198 155.141 32.2969V32.7969C155.141 33.4844 155.188 34.1406 155.281 34.7656C155.385 35.3906 155.562 35.9531 155.812 36.4531C156.073 36.9427 156.432 37.3333 156.891 37.625C157.359 37.9167 157.953 38.0625 158.672 38.0625ZM176.422 24.0938V27.0625H166.734V24.0938H176.422ZM169.328 19.9375H173.469V36.125C173.469 36.625 173.536 37.0104 173.672 37.2812C173.807 37.5521 174.01 37.7344 174.281 37.8281C174.552 37.9219 174.875 37.9688 175.25 37.9688C175.521 37.9688 175.771 37.9531 176 37.9219C176.229 37.8906 176.422 37.8594 176.578 37.8281L176.594 40.9219C176.25 41.0365 175.859 41.1302 175.422 41.2031C174.995 41.276 174.51 41.3125 173.969 41.3125C173.042 41.3125 172.229 41.1562 171.531 40.8438C170.833 40.5208 170.292 40.0052 169.906 39.2969C169.521 38.5781 169.328 37.6302 169.328 36.4531V19.9375ZM196.438 36.375C196.438 36.0208 196.344 35.7031 196.156 35.4219C195.969 35.1406 195.615 34.8854 195.094 34.6562C194.583 34.4167 193.833 34.1927 192.844 33.9844C191.969 33.7969 191.161 33.5625 190.422 33.2812C189.682 33 189.047 32.6615 188.516 32.2656C187.984 31.8594 187.568 31.3854 187.266 30.8438C186.974 30.2917 186.828 29.6562 186.828 28.9375C186.828 28.2396 186.979 27.5833 187.281 26.9688C187.583 26.3438 188.021 25.7969 188.594 25.3281C189.167 24.849 189.865 24.474 190.688 24.2031C191.51 23.9219 192.438 23.7812 193.469 23.7812C194.906 23.7812 196.141 24.0156 197.172 24.4844C198.214 24.9531 199.01 25.599 199.562 26.4219C200.115 27.2344 200.391 28.151 200.391 29.1719H196.266C196.266 28.724 196.161 28.3177 195.953 27.9531C195.755 27.5885 195.448 27.2969 195.031 27.0781C194.615 26.849 194.089 26.7344 193.453 26.7344C192.88 26.7344 192.396 26.8281 192 27.0156C191.615 27.2031 191.323 27.4479 191.125 27.75C190.927 28.0521 190.828 28.3854 190.828 28.75C190.828 29.0208 190.88 29.2656 190.984 29.4844C191.099 29.6927 191.281 29.8854 191.531 30.0625C191.781 30.2396 192.12 30.401 192.547 30.5469C192.984 30.6927 193.521 30.8333 194.156 30.9688C195.417 31.2188 196.516 31.5521 197.453 31.9688C198.401 32.375 199.141 32.9167 199.672 33.5938C200.203 34.2708 200.469 35.1354 200.469 36.1875C200.469 36.9375 200.307 37.625 199.984 38.25C199.661 38.8646 199.193 39.401 198.578 39.8594C197.964 40.3177 197.229 40.6771 196.375 40.9375C195.521 41.1875 194.557 41.3125 193.484 41.3125C191.932 41.3125 190.62 41.0365 189.547 40.4844C188.474 39.9219 187.661 39.2135 187.109 38.3594C186.557 37.4948 186.281 36.599 186.281 35.6719H190.234C190.266 36.3281 190.443 36.8542 190.766 37.25C191.089 37.6458 191.495 37.9323 191.984 38.1094C192.484 38.276 193.01 38.3594 193.562 38.3594C194.188 38.3594 194.714 38.276 195.141 38.1094C195.568 37.9323 195.891 37.6979 196.109 37.4062C196.328 37.1042 196.438 36.7604 196.438 36.375ZM213.672 36.9844V24.0938H217.828V41H213.922L213.672 36.9844ZM214.203 33.4844L215.484 33.4531C215.484 34.5885 215.359 35.6354 215.109 36.5938C214.859 37.5521 214.469 38.3854 213.938 39.0938C213.417 39.7917 212.755 40.3385 211.953 40.7344C211.151 41.1198 210.203 41.3125 209.109 41.3125C208.276 41.3125 207.516 41.1979 206.828 40.9688C206.141 40.7292 205.547 40.3594 205.047 39.8594C204.557 39.349 204.177 38.6979 203.906 37.9062C203.635 37.1042 203.5 36.1406 203.5 35.0156V24.0938H207.625V35.0469C207.625 35.6094 207.688 36.0781 207.812 36.4531C207.948 36.8281 208.13 37.1354 208.359 37.375C208.599 37.6042 208.875 37.7708 209.188 37.875C209.51 37.9688 209.854 38.0156 210.219 38.0156C211.219 38.0156 212.005 37.8177 212.578 37.4219C213.161 37.0156 213.578 36.474 213.828 35.7969C214.078 35.1094 214.203 34.3385 214.203 33.4844ZM225.609 27.3438V47.5H221.469V24.0938H225.297L225.609 27.3438ZM236.469 32.375V32.7031C236.469 33.9323 236.323 35.0729 236.031 36.125C235.75 37.1667 235.333 38.0781 234.781 38.8594C234.229 39.6302 233.542 40.2344 232.719 40.6719C231.906 41.099 230.969 41.3125 229.906 41.3125C228.865 41.3125 227.958 41.1146 227.188 40.7188C226.417 40.3125 225.766 39.7396 225.234 39C224.703 38.2604 224.276 37.401 223.953 36.4219C223.641 35.4323 223.406 34.3542 223.25 33.1875V32.1406C223.406 30.901 223.641 29.776 223.953 28.7656C224.276 27.7448 224.703 26.8646 225.234 26.125C225.766 25.375 226.411 24.7969 227.172 24.3906C227.943 23.9844 228.844 23.7812 229.875 23.7812C230.948 23.7812 231.891 23.9844 232.703 24.3906C233.526 24.7969 234.219 25.3802 234.781 26.1406C235.344 26.901 235.766 27.8073 236.047 28.8594C236.328 29.9115 236.469 31.0833 236.469 32.375ZM232.328 32.7031V32.375C232.328 31.625 232.26 30.9323 232.125 30.2969C231.99 29.651 231.781 29.0885 231.5 28.6094C231.219 28.1198 230.854 27.7396 230.406 27.4688C229.958 27.1979 229.417 27.0625 228.781 27.0625C228.146 27.0625 227.599 27.1667 227.141 27.375C226.682 27.5833 226.307 27.8802 226.016 28.2656C225.724 28.651 225.495 29.1094 225.328 29.6406C225.172 30.1615 225.068 30.7396 225.016 31.375V33.9688C225.109 34.7396 225.292 35.4323 225.562 36.0469C225.833 36.6615 226.229 37.151 226.75 37.5156C227.281 37.8802 227.969 38.0625 228.812 38.0625C229.448 38.0625 229.99 37.9219 230.438 37.6406C230.885 37.3594 231.25 36.974 231.531 36.4844C231.812 35.9844 232.016 35.4115 232.141 34.7656C232.266 34.1198 232.328 33.4323 232.328 32.7031ZM243.609 27.3438V47.5H239.469V24.0938H243.297L243.609 27.3438ZM254.469 32.375V32.7031C254.469 33.9323 254.323 35.0729 254.031 36.125C253.75 37.1667 253.333 38.0781 252.781 38.8594C252.229 39.6302 251.542 40.2344 250.719 40.6719C249.906 41.099 248.969 41.3125 247.906 41.3125C246.865 41.3125 245.958 41.1146 245.188 40.7188C244.417 40.3125 243.766 39.7396 243.234 39C242.703 38.2604 242.276 37.401 241.953 36.4219C241.641 35.4323 241.406 34.3542 241.25 33.1875V32.1406C241.406 30.901 241.641 29.776 241.953 28.7656C242.276 27.7448 242.703 26.8646 243.234 26.125C243.766 25.375 244.411 24.7969 245.172 24.3906C245.943 23.9844 246.844 23.7812 247.875 23.7812C248.948 23.7812 249.891 23.9844 250.703 24.3906C251.526 24.7969 252.219 25.3802 252.781 26.1406C253.344 26.901 253.766 27.8073 254.047 28.8594C254.328 29.9115 254.469 31.0833 254.469 32.375ZM250.328 32.7031V32.375C250.328 31.625 250.26 30.9323 250.125 30.2969C249.99 29.651 249.781 29.0885 249.5 28.6094C249.219 28.1198 248.854 27.7396 248.406 27.4688C247.958 27.1979 247.417 27.0625 246.781 27.0625C246.146 27.0625 245.599 27.1667 245.141 27.375C244.682 27.5833 244.307 27.8802 244.016 28.2656C243.724 28.651 243.495 29.1094 243.328 29.6406C243.172 30.1615 243.068 30.7396 243.016 31.375V33.9688C243.109 34.7396 243.292 35.4323 243.562 36.0469C243.833 36.6615 244.229 37.151 244.75 37.5156C245.281 37.8802 245.969 38.0625 246.812 38.0625C247.448 38.0625 247.99 37.9219 248.438 37.6406C248.885 37.3594 249.25 36.974 249.531 36.4844C249.812 35.9844 250.016 35.4115 250.141 34.7656C250.266 34.1198 250.328 33.4323 250.328 32.7031ZM256.75 32.7188V32.3906C256.75 31.151 256.927 30.0104 257.281 28.9688C257.635 27.9167 258.151 27.0052 258.828 26.2344C259.505 25.4635 260.333 24.8646 261.312 24.4375C262.292 24 263.406 23.7812 264.656 23.7812C265.927 23.7812 267.052 24 268.031 24.4375C269.021 24.8646 269.854 25.4635 270.531 26.2344C271.208 27.0052 271.724 27.9167 272.078 28.9688C272.432 30.0104 272.609 31.151 272.609 32.3906V32.7188C272.609 33.9479 272.432 35.0885 272.078 36.1406C271.724 37.1823 271.208 38.0938 270.531 38.875C269.854 39.6458 269.026 40.2448 268.047 40.6719C267.068 41.099 265.948 41.3125 264.688 41.3125C263.438 41.3125 262.318 41.099 261.328 40.6719C260.339 40.2448 259.505 39.6458 258.828 38.875C258.151 38.0938 257.635 37.1823 257.281 36.1406C256.927 35.0885 256.75 33.9479 256.75 32.7188ZM260.875 32.3906V32.7188C260.875 33.4583 260.948 34.151 261.094 34.7969C261.24 35.4427 261.464 36.0104 261.766 36.5C262.068 36.9896 262.458 37.375 262.938 37.6562C263.427 37.9271 264.01 38.0625 264.688 38.0625C265.354 38.0625 265.927 37.9271 266.406 37.6562C266.885 37.375 267.276 36.9896 267.578 36.5C267.891 36.0104 268.12 35.4427 268.266 34.7969C268.411 34.151 268.484 33.4583 268.484 32.7188V32.3906C268.484 31.6615 268.411 30.9792 268.266 30.3438C268.12 29.6979 267.891 29.1302 267.578 28.6406C267.276 28.1406 266.88 27.75 266.391 27.4688C265.911 27.1771 265.333 27.0312 264.656 27.0312C263.99 27.0312 263.417 27.1771 262.938 27.4688C262.458 27.75 262.068 28.1406 261.766 28.6406C261.464 29.1302 261.24 29.6979 261.094 30.3438C260.948 30.9792 260.875 31.6615 260.875 32.3906ZM279.734 27.5469V41H275.609V24.0938H279.516L279.734 27.5469ZM284.875 23.9844L284.812 27.8281C284.583 27.7865 284.323 27.7552 284.031 27.7344C283.75 27.7135 283.484 27.7031 283.234 27.7031C282.599 27.7031 282.042 27.7917 281.562 27.9688C281.083 28.1354 280.682 28.3802 280.359 28.7031C280.047 29.026 279.807 29.4219 279.641 29.8906C279.474 30.349 279.38 30.8698 279.359 31.4531L278.469 31.3438C278.469 30.2708 278.578 29.276 278.797 28.3594C279.016 27.4427 279.333 26.6406 279.75 25.9531C280.167 25.2656 280.688 24.7344 281.312 24.3594C281.948 23.974 282.677 23.7812 283.5 23.7812C283.729 23.7812 283.974 23.8021 284.234 23.8438C284.505 23.875 284.719 23.9219 284.875 23.9844ZM295.922 24.0938V27.0625H286.234V24.0938H295.922ZM288.828 19.9375H292.969V36.125C292.969 36.625 293.036 37.0104 293.172 37.2812C293.307 37.5521 293.51 37.7344 293.781 37.8281C294.052 37.9219 294.375 37.9688 294.75 37.9688C295.021 37.9688 295.271 37.9531 295.5 37.9219C295.729 37.8906 295.922 37.8594 296.078 37.8281L296.094 40.9219C295.75 41.0365 295.359 41.1302 294.922 41.2031C294.495 41.276 294.01 41.3125 293.469 41.3125C292.542 41.3125 291.729 41.1562 291.031 40.8438C290.333 40.5208 289.792 40.0052 289.406 39.2969C289.021 38.5781 288.828 37.6302 288.828 36.4531V19.9375Z" fill="black"/>
<defs>
<clipPath id="clip0_1634_9780">
<rect width="60" height="60" fill="white"/>
</clipPath>
</defs>
</svg>
