<svg width="258" height="60" viewBox="0 0 258 60" fill="none" xmlns="http://www.w3.org/2000/svg">
<g clip-path="url(#clip0_1634_9791)">
<path d="M12.5 32.95V42.95L30 52.5L47.5 42.95V32.95L30 42.5L12.5 32.95ZM30 7.5L2.5 22.5L30 37.5L52.5 25.225V42.5H57.5V22.5L30 7.5Z" fill="#1D1D3D"/>
</g>
<path d="M79.0781 35.0938C79.0781 34.6562 79.0104 34.2656 78.875 33.9219C78.75 33.5677 78.5156 33.25 78.1719 32.9688C77.8385 32.6771 77.3646 32.3958 76.75 32.125C76.1458 31.8438 75.3646 31.5521 74.4062 31.25C73.3438 30.9167 72.3542 30.5417 71.4375 30.125C70.5208 29.7083 69.7135 29.224 69.0156 28.6719C68.3281 28.1198 67.7917 27.4844 67.4062 26.7656C67.0208 26.0365 66.8281 25.1927 66.8281 24.2344C66.8281 23.2969 67.026 22.4427 67.4219 21.6719C67.8281 20.901 68.401 20.2396 69.1406 19.6875C69.8802 19.125 70.75 18.6927 71.75 18.3906C72.7604 18.0885 73.875 17.9375 75.0938 17.9375C76.7812 17.9375 78.2396 18.2448 79.4688 18.8594C80.7083 19.474 81.6667 20.3073 82.3438 21.3594C83.0208 22.4115 83.3594 23.5938 83.3594 24.9062H79.0781C79.0781 24.1979 78.9271 23.5729 78.625 23.0312C78.3333 22.4896 77.8854 22.0625 77.2812 21.75C76.6875 21.4375 75.9375 21.2812 75.0312 21.2812C74.1562 21.2812 73.4271 21.4115 72.8438 21.6719C72.2708 21.9323 71.8385 22.2865 71.5469 22.7344C71.2656 23.1823 71.125 23.6823 71.125 24.2344C71.125 24.651 71.224 25.026 71.4219 25.3594C71.6198 25.6823 71.9167 25.9896 72.3125 26.2812C72.7083 26.5625 73.1979 26.8281 73.7812 27.0781C74.375 27.3177 75.0625 27.5573 75.8438 27.7969C77.0938 28.1719 78.1875 28.5885 79.125 29.0469C80.0729 29.5052 80.8594 30.026 81.4844 30.6094C82.1198 31.1927 82.5938 31.849 82.9062 32.5781C83.2292 33.3073 83.3906 34.1354 83.3906 35.0625C83.3906 36.0417 83.1979 36.9167 82.8125 37.6875C82.4271 38.4583 81.875 39.1146 81.1562 39.6562C80.4375 40.1979 79.5729 40.6094 78.5625 40.8906C77.5625 41.1719 76.4427 41.3125 75.2031 41.3125C74.099 41.3125 73.0052 41.1667 71.9219 40.875C70.849 40.5729 69.875 40.125 69 39.5312C68.125 38.9271 67.4271 38.1667 66.9062 37.25C66.3854 36.3229 66.125 35.2396 66.125 34H70.4375C70.4375 34.7188 70.5521 35.3333 70.7812 35.8438C71.0208 36.3438 71.3542 36.7552 71.7812 37.0781C72.2188 37.3906 72.7292 37.6198 73.3125 37.7656C73.8958 37.9115 74.526 37.9844 75.2031 37.9844C76.0781 37.9844 76.7969 37.8646 77.3594 37.625C77.9323 37.375 78.3594 37.0312 78.6406 36.5938C78.9323 36.1562 79.0781 35.6562 79.0781 35.0938ZM91.2812 18.25V41H86.9844V18.25H91.2812ZM113.672 29.2344V38.0938C113.339 38.5208 112.812 38.9844 112.094 39.4844C111.385 39.9844 110.458 40.4167 109.312 40.7812C108.167 41.1354 106.76 41.3125 105.094 41.3125C103.646 41.3125 102.323 41.0729 101.125 40.5938C99.9271 40.1042 98.8958 39.3906 98.0312 38.4531C97.1667 37.5156 96.5 36.3698 96.0312 35.0156C95.5625 33.6615 95.3281 32.1146 95.3281 30.375V28.875C95.3281 27.1354 95.5469 25.5885 95.9844 24.2344C96.4323 22.8802 97.0677 21.7344 97.8906 20.7969C98.724 19.8594 99.7188 19.1458 100.875 18.6562C102.042 18.1667 103.344 17.9219 104.781 17.9219C106.708 17.9219 108.292 18.2396 109.531 18.875C110.781 19.5104 111.74 20.3854 112.406 21.5C113.073 22.6042 113.49 23.875 113.656 25.3125H109.469C109.354 24.5208 109.125 23.8281 108.781 23.2344C108.438 22.6302 107.948 22.1615 107.312 21.8281C106.688 21.4844 105.875 21.3125 104.875 21.3125C104.031 21.3125 103.286 21.4792 102.641 21.8125C101.995 22.1458 101.453 22.6302 101.016 23.2656C100.578 23.901 100.245 24.6875 100.016 25.625C99.7969 26.5625 99.6875 27.6354 99.6875 28.8438V30.375C99.6875 31.5938 99.8125 32.6771 100.062 33.625C100.312 34.5625 100.672 35.3542 101.141 36C101.62 36.6354 102.208 37.1198 102.906 37.4531C103.615 37.776 104.417 37.9375 105.312 37.9375C106.125 37.9375 106.797 37.8698 107.328 37.7344C107.87 37.5885 108.302 37.4167 108.625 37.2188C108.948 37.0208 109.198 36.8281 109.375 36.6406V32.375H104.859V29.2344H113.672ZM134.75 21.7031L128.266 41H123.719L132.219 18.25H135.125L134.75 21.7031ZM140.172 41L133.656 21.7031L133.266 18.25H136.188L144.734 41H140.172ZM139.875 32.5469V35.9375H127.672V32.5469H139.875ZM153.703 38.0625C154.286 38.0625 154.807 37.9479 155.266 37.7188C155.724 37.4896 156.089 37.1667 156.359 36.75C156.641 36.3333 156.792 35.849 156.812 35.2969H160.703C160.682 36.4427 160.359 37.4688 159.734 38.375C159.109 39.2812 158.276 40 157.234 40.5312C156.203 41.0521 155.047 41.3125 153.766 41.3125C152.464 41.3125 151.328 41.0938 150.359 40.6562C149.391 40.2188 148.583 39.6094 147.938 38.8281C147.302 38.0469 146.823 37.1406 146.5 36.1094C146.188 35.0781 146.031 33.974 146.031 32.7969V32.2969C146.031 31.1198 146.188 30.0156 146.5 28.9844C146.823 27.9531 147.302 27.0469 147.938 26.2656C148.583 25.4844 149.391 24.875 150.359 24.4375C151.328 24 152.458 23.7812 153.75 23.7812C155.115 23.7812 156.312 24.0469 157.344 24.5781C158.385 25.1094 159.198 25.8594 159.781 26.8281C160.375 27.7969 160.682 28.9375 160.703 30.25H156.812C156.792 29.6458 156.656 29.1042 156.406 28.625C156.156 28.1458 155.802 27.7604 155.344 27.4688C154.885 27.1771 154.328 27.0312 153.672 27.0312C152.974 27.0312 152.391 27.1771 151.922 27.4688C151.464 27.7604 151.104 28.1615 150.844 28.6719C150.594 29.1719 150.417 29.7344 150.312 30.3594C150.219 30.974 150.172 31.6198 150.172 32.2969V32.7969C150.172 33.4844 150.219 34.1406 150.312 34.7656C150.417 35.3906 150.594 35.9531 150.844 36.4531C151.104 36.9427 151.464 37.3333 151.922 37.625C152.391 37.9167 152.984 38.0625 153.703 38.0625ZM172.766 37.4062V29.6094C172.766 29.0365 172.667 28.5417 172.469 28.125C172.271 27.7083 171.969 27.3854 171.562 27.1562C171.156 26.9271 170.641 26.8125 170.016 26.8125C169.464 26.8125 168.979 26.9062 168.562 27.0938C168.156 27.2812 167.844 27.5469 167.625 27.8906C167.406 28.224 167.297 28.6094 167.297 29.0469H163.156C163.156 28.349 163.323 27.6875 163.656 27.0625C163.99 26.4271 164.464 25.8646 165.078 25.375C165.703 24.875 166.448 24.4844 167.312 24.2031C168.188 23.9219 169.167 23.7812 170.25 23.7812C171.531 23.7812 172.672 24 173.672 24.4375C174.682 24.8646 175.474 25.5104 176.047 26.375C176.63 27.2396 176.922 28.3281 176.922 29.6406V37.0156C176.922 37.8594 176.974 38.5833 177.078 39.1875C177.193 39.7812 177.359 40.2969 177.578 40.7344V41H173.375C173.177 40.5729 173.026 40.0312 172.922 39.375C172.818 38.7083 172.766 38.0521 172.766 37.4062ZM173.344 30.7031L173.375 33.1562H170.766C170.12 33.1562 169.552 33.224 169.062 33.3594C168.573 33.4844 168.172 33.6719 167.859 33.9219C167.547 34.1615 167.312 34.4531 167.156 34.7969C167 35.1302 166.922 35.5104 166.922 35.9375C166.922 36.3542 167.016 36.7292 167.203 37.0625C167.401 37.3958 167.682 37.6615 168.047 37.8594C168.422 38.0469 168.859 38.1406 169.359 38.1406C170.089 38.1406 170.724 37.9948 171.266 37.7031C171.807 37.401 172.229 37.0365 172.531 36.6094C172.833 36.1823 172.995 35.776 173.016 35.3906L174.203 37.1719C174.057 37.599 173.839 38.0521 173.547 38.5312C173.255 39.0104 172.88 39.4583 172.422 39.875C171.964 40.2917 171.411 40.6354 170.766 40.9062C170.12 41.1771 169.37 41.3125 168.516 41.3125C167.422 41.3125 166.443 41.0938 165.578 40.6562C164.714 40.2188 164.031 39.6198 163.531 38.8594C163.031 38.099 162.781 37.2344 162.781 36.2656C162.781 35.3698 162.948 34.5781 163.281 33.8906C163.615 33.2031 164.109 32.625 164.766 32.1562C165.422 31.6771 166.234 31.3177 167.203 31.0781C168.182 30.8281 169.302 30.7031 170.562 30.7031H173.344ZM190.781 37.4062V17H194.938V41H191.188L190.781 37.4062ZM179.922 32.75V32.4219C179.922 31.1302 180.068 29.9583 180.359 28.9062C180.661 27.8438 181.099 26.9323 181.672 26.1719C182.245 25.4115 182.938 24.8229 183.75 24.4062C184.573 23.9896 185.505 23.7812 186.547 23.7812C187.557 23.7812 188.438 23.9844 189.188 24.3906C189.948 24.7969 190.594 25.375 191.125 26.125C191.667 26.875 192.099 27.7656 192.422 28.7969C192.745 29.8177 192.979 30.9427 193.125 32.1719V33.0625C192.979 34.2604 192.745 35.3594 192.422 36.3594C192.099 37.3594 191.667 38.2344 191.125 38.9844C190.594 39.724 189.948 40.2969 189.188 40.7031C188.427 41.1094 187.536 41.3125 186.516 41.3125C185.484 41.3125 184.557 41.099 183.734 40.6719C182.922 40.2448 182.229 39.6458 181.656 38.875C181.094 38.1042 180.661 37.1979 180.359 36.1562C180.068 35.1146 179.922 33.9792 179.922 32.75ZM184.062 32.4219V32.75C184.062 33.4792 184.125 34.1615 184.25 34.7969C184.375 35.4323 184.578 35.9948 184.859 36.4844C185.141 36.9635 185.5 37.3385 185.938 37.6094C186.385 37.8802 186.927 38.0156 187.562 38.0156C188.375 38.0156 189.042 37.8385 189.562 37.4844C190.094 37.1198 190.505 36.625 190.797 36C191.089 35.3646 191.276 34.651 191.359 33.8594V31.4062C191.318 30.7812 191.208 30.2031 191.031 29.6719C190.865 29.1406 190.625 28.6823 190.312 28.2969C190.01 27.9115 189.635 27.6094 189.188 27.3906C188.74 27.1719 188.208 27.0625 187.594 27.0625C186.958 27.0625 186.417 27.2031 185.969 27.4844C185.521 27.7552 185.156 28.1354 184.875 28.625C184.594 29.1146 184.385 29.6823 184.25 30.3281C184.125 30.974 184.062 31.6719 184.062 32.4219ZM206.266 41.3125C204.984 41.3125 203.833 41.1042 202.812 40.6875C201.792 40.2708 200.922 39.6927 200.203 38.9531C199.495 38.2031 198.948 37.3333 198.562 36.3438C198.188 35.3438 198 34.2708 198 33.125V32.5C198 31.1979 198.188 30.0156 198.562 28.9531C198.938 27.8802 199.469 26.9583 200.156 26.1875C200.844 25.4167 201.667 24.8229 202.625 24.4062C203.583 23.9896 204.641 23.7812 205.797 23.7812C206.995 23.7812 208.052 23.9844 208.969 24.3906C209.885 24.7865 210.651 25.349 211.266 26.0781C211.88 26.8073 212.344 27.6823 212.656 28.7031C212.969 29.7135 213.125 30.8333 213.125 32.0625V33.7969H199.875V30.9531H209.062V30.6406C209.042 29.9844 208.917 29.3854 208.688 28.8438C208.458 28.2917 208.104 27.8542 207.625 27.5312C207.146 27.1979 206.526 27.0312 205.766 27.0312C205.151 27.0312 204.615 27.1667 204.156 27.4375C203.708 27.6979 203.333 28.0729 203.031 28.5625C202.74 29.0417 202.521 29.6146 202.375 30.2812C202.229 30.9479 202.156 31.6875 202.156 32.5V33.125C202.156 33.8333 202.25 34.4896 202.438 35.0938C202.635 35.6979 202.922 36.224 203.297 36.6719C203.682 37.1094 204.141 37.4531 204.672 37.7031C205.214 37.9427 205.828 38.0625 206.516 38.0625C207.38 38.0625 208.161 37.8958 208.859 37.5625C209.568 37.2188 210.182 36.7135 210.703 36.0469L212.781 38.2031C212.427 38.724 211.948 39.224 211.344 39.7031C210.75 40.1823 210.031 40.5729 209.188 40.875C208.344 41.1667 207.37 41.3125 206.266 41.3125ZM220 27.5625V41H215.875V24.0938H219.766L220 27.5625ZM219.391 31.9375H218.125C218.125 30.7604 218.266 29.6771 218.547 28.6875C218.839 27.6979 219.266 26.8385 219.828 26.1094C220.391 25.3698 221.083 24.7969 221.906 24.3906C222.74 23.9844 223.703 23.7812 224.797 23.7812C225.557 23.7812 226.255 23.8958 226.891 24.125C227.526 24.3438 228.073 24.6927 228.531 25.1719C229 25.6406 229.359 26.2552 229.609 27.0156C229.859 27.7656 229.984 28.6667 229.984 29.7188V41H225.859V30.1406C225.859 29.349 225.745 28.7292 225.516 28.2812C225.297 27.8333 224.979 27.5208 224.562 27.3438C224.146 27.1562 223.646 27.0625 223.062 27.0625C222.417 27.0625 221.859 27.1927 221.391 27.4531C220.932 27.7031 220.552 28.0521 220.25 28.5C219.958 28.9479 219.74 29.4635 219.594 30.0469C219.458 30.6302 219.391 31.2604 219.391 31.9375ZM229.672 31.1719L227.969 31.4844C227.979 30.4219 228.125 29.4271 228.406 28.5C228.688 27.5625 229.099 26.7448 229.641 26.0469C230.193 25.3385 230.875 24.7865 231.688 24.3906C232.51 23.9844 233.458 23.7812 234.531 23.7812C235.365 23.7812 236.115 23.901 236.781 24.1406C237.458 24.3698 238.036 24.7396 238.516 25.25C238.995 25.75 239.359 26.401 239.609 27.2031C239.87 28.0052 240 28.9844 240 30.1406V41H235.844V30.125C235.844 29.3021 235.729 28.6719 235.5 28.2344C235.281 27.7969 234.964 27.4948 234.547 27.3281C234.13 27.151 233.641 27.0625 233.078 27.0625C232.505 27.0625 232.005 27.1719 231.578 27.3906C231.161 27.599 230.807 27.8906 230.516 28.2656C230.234 28.6406 230.021 29.0781 229.875 29.5781C229.74 30.0677 229.672 30.599 229.672 31.1719ZM248.656 39.125L253.188 24.0938H257.609L250.828 43.5625C250.672 43.9792 250.469 44.4323 250.219 44.9219C249.979 45.4115 249.656 45.875 249.25 46.3125C248.844 46.7604 248.333 47.125 247.719 47.4062C247.115 47.6875 246.38 47.8281 245.516 47.8281C245.141 47.8281 244.807 47.8021 244.516 47.75C244.224 47.6979 243.917 47.6302 243.594 47.5469V44.4531C243.698 44.4635 243.818 44.4688 243.953 44.4688C244.099 44.4792 244.224 44.4844 244.328 44.4844C244.932 44.4844 245.432 44.4115 245.828 44.2656C246.224 44.1302 246.542 43.9062 246.781 43.5938C247.031 43.2917 247.24 42.8958 247.406 42.4062L248.656 39.125ZM246.422 24.0938L250.25 36.5469L250.922 40.9062L248.078 41.4219L241.969 24.0938H246.422Z" fill="black"/>
<defs>
<clipPath id="clip0_1634_9791">
<rect width="60" height="60" fill="white"/>
</clipPath>
</defs>
</svg>
