<svg width="1920" height="1080" viewBox="0 0 1920 1080" fill="none" xmlns="http://www.w3.org/2000/svg">
<g clip-path="url(#clip0_1634_9695)">
<rect width="1920" height="1080" fill="white"/>
<path d="M936.849 515.005C938.814 712.232 539.633 1021 338.349 1023.01C137.066 1025.01 -47.1283 860.603 -49.0931 663.377C-51.058 466.15 92.8493 250.505 382.349 179.505C671.849 108.505 934.884 317.779 936.849 515.005Z" fill="#F8C641"/>
<path d="M819.934 725.306C821.287 717.44 823.994 709.882 827.978 702.823C831.888 695.956 839.014 689.019 847.344 690.946C855.461 692.791 858.442 702.128 859.379 709.784C863.263 745.098 852.145 779.855 841.262 813.379C827.924 811.705 814.621 808.056 802.279 802.573C808.733 789.189 817.691 778.968 816.518 764.373C815.293 748.652 810.053 720.411 811.064 713.448C812.076 706.484 816.703 714.973 817.099 717.115C817.495 719.257 818.99 722.066 819.934 725.306Z" fill="#FCDAD1"/>
<path d="M389.328 678.041C419.646 732.247 432.602 793.343 385.964 819.428C339.326 845.513 266.683 824.28 236.366 770.073C206.048 715.867 219.278 650.779 265.916 624.694C312.554 598.609 359.011 623.834 389.328 678.041Z" fill="#FCDAD1"/>
<path d="M369.892 864.224L359.661 868.63C349.07 873.192 336.867 868.492 332.407 858.135L316.21 820.525L364.746 799.623L380.942 837.233C385.454 847.568 380.484 859.663 369.892 864.224Z" fill="#FCDAD1"/>
<path d="M334.577 851.316C329.523 857.513 303.865 882.445 303.865 882.445C303.865 882.445 315.832 924.875 378.737 904.753C434.099 887.083 424.671 852.54 424.671 852.54L379.864 839.477L334.577 851.316Z" fill="#FCDAD1"/>
<path d="M842.978 789.161C832.528 784.296 822.078 779.432 811.739 774.479C800.881 786.651 799.495 804.286 797.657 820.446C795.15 842.833 790.836 865.012 784.738 886.782C781.127 899.585 776.113 913.142 764.634 919.751C750.663 927.802 732.898 921.993 717.674 916.172C660.616 894.042 618.477 849.7 561.419 827.569C516.26 810.064 489.606 861.125 499.4 901.402C508.468 938.036 527.747 961.916 559.319 976.332C600.091 994.959 662.522 1004.9 705.195 1019.06C730.214 1027.34 758.173 1034.72 781.852 1023.32C793.202 1017.91 802.443 1008.51 809.652 998.15C833.232 964.971 839.101 922.634 843.573 881.967C846.4 855.651 848.848 829.088 850.872 802.68C851.085 799.755 851.32 796.63 849.772 794.012C848.382 791.818 845.591 790.377 842.978 789.161Z" fill="#F1F1F1"/>
<path d="M586.733 855.329C606.328 913.799 536.199 990.025 430.094 1025.58C323.99 1061.14 222.09 1042.57 202.495 984.099C182.9 925.629 267.655 893.044 373.759 857.485C479.864 821.926 567.138 796.859 586.733 855.329Z" fill="#F2F2F2"/>
<path d="M378.504 978.725L262.616 917.483L291.085 887.588L329.49 856.73L378.504 978.725Z" fill="#1A65FF"/>
<path d="M363.051 962.618L406.677 847.548L494.032 879.812L363.051 962.618Z" fill="#1A65FF"/>
<path d="M291.305 722.806C283.134 712.462 263.747 716.005 259.79 728.491C256.806 737.748 277.604 770.371 281.534 780.774C291.898 808.387 290.936 1007.75 303.118 1034.79C257.306 1042.8 213.881 1048.52 196.217 1028.79C178.553 1009.07 153.146 1012.08 146.477 1007.92C139.808 1003.77 129.285 936.67 128.632 930.462C117.993 837.611 170.003 595.482 284.83 580.763C298.907 578.91 315.214 578.246 329.463 579.447C338.812 580.223 347.041 582.868 355.902 586.211C373.977 593.284 387.062 609.92 394.078 628.068C401.237 646.193 403.064 665.866 404.968 685.086C405.578 691.008 344.597 708.024 337.857 708.024C330.236 708.013 306.925 691.672 299.959 695.961C291.914 700.855 292.988 714.627 291.305 722.806Z" fill="#151632"/>
<path d="M291.713 781.63C291.783 786.709 290.259 789.398 288.114 790.923C285.845 792.535 282.562 793.09 278.618 793.145C274.67 793.199 271.526 792.729 269.357 791.201C267.301 789.751 265.807 787.109 265.736 781.986C265.665 776.809 267.032 770.55 269.374 765.606C270.544 763.136 271.923 761.069 273.419 759.633C274.912 758.2 276.432 757.477 277.935 757.457C279.447 757.436 281.051 758.124 282.679 759.531C284.303 760.935 285.849 762.973 287.196 765.408C289.896 770.29 291.643 776.49 291.713 781.63Z" stroke="#F0C85B" stroke-width="3"/>
<path d="M107.395 245.123L200.706 331.625L-6.14553 618.814L-144 511.974L107.395 245.123Z" fill="#EF981A"/>
<path d="M327.741 90.3653L385.42 138.948L200.675 435.187L91.6301 347.323L327.741 90.3653Z" fill="#EF981A"/>
<path d="M424.431 35.2254L419.287 176.776L286.666 72.4628L424.431 35.2254Z" fill="#EF981A"/>
<path d="M622 230.35C631.472 230.35 639.15 222.672 639.15 213.2C639.15 203.728 631.472 196.05 622 196.05C612.528 196.05 604.85 203.728 604.85 213.2C604.85 222.672 612.528 230.35 622 230.35Z" fill="#151632"/>
<path d="M572 252.6H615.45V283.9H572V252.6ZM628.55 252.6H672.05V283.9H628.55V252.6ZM655.25 252.6H648.25V244.7H595.75V252.6H588.35V237.95H655.25V252.6Z" fill="#151632"/>
<path d="M618.25 226.85H625.75V239.45H618.25V226.85Z" fill="#151632"/>
<path d="M513.5 81.5H468.5V36.5H513.5V81.5ZM477.5 54.5V63.5H486.5V72.5H495.5V63.5H504.5V54.5H495.5V45.5H486.5V54.5H477.5Z" fill="#151632"/>
<path d="M763.833 115.267H735.5C735.445 115.271 735.389 115.264 735.337 115.246C735.284 115.228 735.236 115.2 735.195 115.162C735.155 115.124 735.122 115.079 735.1 115.028C735.078 114.977 735.067 114.922 735.067 114.867V101.8H720.8C720.65 101.8 720.506 101.74 720.399 101.634C720.293 101.528 720.233 101.384 720.233 101.233V87.8666H713.567C713.481 87.8571 713.398 87.828 713.325 87.7814C713.251 87.7348 713.19 87.6721 713.145 87.598C713.1 87.524 713.072 87.4406 713.065 87.3542C713.057 87.2679 713.069 87.1809 713.1 87.1L720.267 70.9666C720.27 69.5609 720.449 68.1611 720.8 66.8C721.566 63.6112 723.138 60.6727 725.367 58.2666C729.833 53.4666 736.933 50.9333 746.3 50.7H747.633C752.817 50.5335 757.977 51.4768 762.767 53.4666C766.141 54.9672 769.012 57.4092 771.033 60.5C774.231 66.3701 775.688 73.0307 775.233 79.7C775.213 82.7053 774.625 85.6796 773.5 88.4666C772.532 90.8809 771.266 93.1651 769.733 95.2666C768.149 97.4815 766.302 99.4962 764.233 101.267V114.867C764.238 114.925 764.231 114.983 764.211 115.038C764.191 115.093 764.159 115.143 764.118 115.184C764.076 115.226 764.027 115.257 763.972 115.277C763.917 115.297 763.858 115.305 763.8 115.3L763.833 115.267ZM737.867 89.7C739.574 91.3583 741.654 92.5816 743.933 93.2666L744.933 99.1666H751.633L752.433 93.2666C754.642 92.601 756.663 91.4249 758.333 89.8333L764.067 91.7666L767.167 85.9666L762.5 82.7333C762.991 80.7941 763.082 78.7753 762.767 76.8L767.767 73.2666L764.767 67.5L759.333 69.3666C757.491 67.2523 755.087 65.7035 752.4 64.9L751.633 59.2666H744.9L744 64.9C741.348 65.6853 738.969 67.1981 737.133 69.2666L731.867 67.5333L728.933 73.3666L733.6 76.5333C733.255 78.5371 733.323 80.5901 733.8 82.5666L729.133 86.3333L732.6 91.9333L737.867 89.7Z" fill="#151632"/>
<path d="M748.433 89.0333C753.956 89.0333 758.433 84.5562 758.433 79.0333C758.433 73.5105 753.956 69.0333 748.433 69.0333C742.911 69.0333 738.433 73.5105 738.433 79.0333C738.433 84.5562 742.911 89.0333 748.433 89.0333Z" fill="black"/>
<path d="M988.879 231.254C988.153 227.545 986.29 224.154 983.548 221.552C980.807 218.95 977.324 217.266 973.582 216.734C969.84 216.201 966.025 216.847 962.667 218.582C959.308 220.316 956.574 223.053 954.842 226.413C951.183 226.874 947.834 228.704 945.471 231.536C943.107 234.367 941.904 237.988 942.104 241.671C942.304 245.353 943.891 248.824 946.547 251.383C949.203 253.942 952.729 255.399 956.417 255.463H988.004C991.097 255.391 994.046 254.141 996.248 251.968C998.449 249.795 999.738 246.862 999.85 243.771C999.961 240.679 998.888 237.661 996.849 235.335C994.81 233.008 991.959 231.549 988.879 231.254ZM966.129 248.171L957.642 239.683L961.054 236.242L966.158 241.317L978.729 228.746L982.171 232.158L966.129 248.171Z" fill="#151632"/>
<path d="M199.542 115.417L193.083 110.625L185.167 109.313L184 101.375L179.312 94.8334L184.104 88.375L185.417 80.4584L193.354 79.2709L199.896 74.6042L206.354 79.3959L214.271 80.7084L215.458 88.6459L220.125 95.1875L215.333 101.646L214.021 109.563L206.083 110.75L199.542 115.417ZM194.125 93.5L191.646 95.9584L197.75 102.063L209.292 90.5209L206.75 87.9584L197.75 96.9375L194.125 93.5Z" fill="#151632"/>
<path d="M64.5333 171.433H40V211.5C40.3667 220.833 49.4333 230.267 64.5333 231.433C79.6333 230.2 89.1 222.5 89.1 211.5V171.433H64.5333ZM83.6333 177.433V211.5C83.6333 219.5 74.6667 225.7 64.5333 225.8C54.4 225.9 45.7 217.9 45.4667 211.5C45.2333 205.1 45.4667 177.433 45.4667 177.433H83.6333Z" fill="#151632"/>
<path d="M47.9 179.767H65.1L64.7 223.367C64.7 223.367 49.5667 222.533 47.9 209.933C47.8333 197.5 47.9 179.767 47.9 179.767Z" fill="black"/>
<line x1="-2.09242" y1="667.632" x2="150.908" y2="433.632" stroke="white" stroke-width="5" stroke-dasharray="8 8"/>
<line x1="209.829" y1="464.413" x2="363.829" y2="194.76" stroke="white" stroke-width="5" stroke-dasharray="8 8"/>
<line x1="160.768" y1="426.232" x2="204.768" y2="470.232" stroke="white" stroke-width="5" stroke-dasharray="8 8"/>
<g clip-path="url(#clip1_1634_9695)">
<path d="M490.019 948.571C501.386 948.571 510.6 939.137 510.6 927.5C510.6 915.863 501.386 906.429 490.019 906.429C478.653 906.429 469.438 915.863 469.438 927.5C469.438 939.137 478.653 948.571 490.019 948.571Z" fill="white"/>
<path d="M497.761 927.984C496.327 926.085 494.682 925.176 491.938 924.164C488.36 922.823 486.594 921.902 486.82 919.339C487.014 917.148 489.09 915.954 491.351 916.164C492.572 916.277 493.418 916.772 494.045 917.341C494.327 917.726 494.759 917.993 495.265 918.04C496.21 918.128 497.044 917.415 497.13 916.447C497.207 915.572 496.644 914.791 495.836 914.585C494.885 914.225 493.689 913.92 492.18 913.781C489.674 913.548 487.914 913.953 485.642 915.257C483.365 916.622 482.189 918.784 481.946 921.537C481.553 925.978 484.664 928.412 488.71 930.047C492.876 931.694 494.365 932.967 494.144 935.47C493.94 937.785 491.852 939.105 489.468 938.885C486.474 938.607 485.445 936.998 484.512 935.02L482.805 931.329C482.706 931.068 482.522 931.051 482.272 931.091L481.077 931.359C480.889 931.405 480.811 931.587 480.849 931.843L481.268 938.252C481.307 938.509 481.474 938.712 481.697 938.987C482.319 939.611 484.913 940.925 488.152 941.224C494.202 941.784 498.689 938.416 499.152 933.16C499.341 931.032 498.985 929.484 497.761 927.984Z" fill="#183242"/>
</g>
<path d="M1052.55 51.4896C1047.35 57.7979 1043.09 64.8239 1039.9 72.35L1027.08 66.8604L1041.43 52.5167C1042.25 51.6908 1043.27 51.0812 1044.39 50.7414C1045.51 50.4017 1046.69 50.3424 1047.84 50.5688L1052.55 51.4896ZM1059.56 89.2083C1059.56 89.2083 1072.81 83.7188 1080.42 76.1042C1099.55 56.9792 1096.36 42.0333 1095.33 38.6688C1091.97 37.6063 1077.02 34.4542 1057.9 53.5792C1050.28 61.1938 1044.79 74.4396 1044.79 74.4396L1059.56 89.2083ZM1082.51 81.4521C1076.2 86.6493 1069.18 90.9079 1061.65 94.0958L1067.14 106.917L1081.48 92.5729C1083.15 90.9083 1083.89 88.5 1083.43 86.1625L1082.51 81.4521ZM1051.87 92.75C1051.87 95.567 1050.75 98.2677 1048.76 100.258C1044.58 104.438 1027.08 106.917 1027.08 106.917C1027.08 106.917 1029.56 89.4208 1033.74 85.2417C1035.23 83.7576 1037.12 82.7472 1039.18 82.338C1041.24 81.9288 1043.37 82.1392 1045.31 82.9426C1047.25 83.746 1048.91 85.1064 1050.08 86.852C1051.25 88.5975 1051.87 90.6499 1051.87 92.75ZM1066.04 60.875C1066.04 56.9792 1069.23 53.7917 1073.12 53.7917C1077.02 53.7917 1080.21 56.9792 1080.21 60.875C1080.21 64.7708 1077.02 67.9583 1073.12 67.9583C1069.23 67.9583 1066.04 64.7708 1066.04 60.875Z" fill="black"/>
<path d="M889.76 477.04H976.16V500.08H944.48V598H921.44V500.08H889.76V477.04ZM1043.47 505.84C1063.99 505.84 1076.95 519.16 1076.95 546.16V598H1053.91V549.04C1053.91 535.18 1048.51 528.88 1036.63 528.88C1026.19 528.88 1016.47 535.72 1016.47 551.92V598H993.43V471.28H1016.47V517.36C1022.59 510.16 1029.97 505.84 1043.47 505.84ZM1163.38 508.72H1186.42V598H1163.38V588.46C1156.18 596.74 1146.82 600.88 1136.02 600.88C1111.36 600.88 1091.38 579.64 1091.38 553.36C1091.38 527.08 1111.36 505.84 1136.02 505.84C1146.82 505.84 1156.18 509.98 1163.38 518.26V508.72ZM1138.9 577.84C1152.4 577.84 1163.38 566.86 1163.38 553.36C1163.38 539.86 1152.4 528.88 1138.9 528.88C1125.4 528.88 1114.42 539.86 1114.42 553.36C1114.42 566.86 1125.4 577.84 1138.9 577.84ZM1258.1 505.84C1278.62 505.84 1291.58 519.16 1291.58 546.16V598H1268.54V549.04C1268.54 535.18 1263.14 528.88 1251.26 528.88C1240.82 528.88 1231.1 535.72 1231.1 551.92V598H1208.06V508.72H1231.1V517.36C1237.22 510.16 1244.6 505.84 1258.1 505.84ZM1354.97 551.92L1401.05 598H1372.25L1334.81 562.72V598H1311.77V471.28H1334.81V542.56L1369.37 508.72H1398.17L1354.97 551.92ZM1524.76 508.72H1550.68L1493.08 644.08H1467.16L1490.2 591.52L1455.64 508.72H1481.56L1503.16 561.28L1524.76 508.72ZM1601.21 505.84C1627.49 505.84 1648.73 527.08 1648.73 553.36C1648.73 579.64 1627.49 600.88 1601.21 600.88C1574.93 600.88 1553.69 579.64 1553.69 553.36C1553.69 527.08 1574.93 505.84 1601.21 505.84ZM1601.21 577.84C1614.71 577.84 1625.69 566.86 1625.69 553.36C1625.69 539.86 1614.71 528.88 1601.21 528.88C1587.71 528.88 1576.73 539.86 1576.73 553.36C1576.73 566.86 1587.71 577.84 1601.21 577.84ZM1693.76 600.88C1673.24 600.88 1660.28 587.56 1660.28 560.56V508.72H1683.32V557.68C1683.32 571.54 1688.72 577.84 1700.6 577.84C1711.04 577.84 1720.76 571 1720.76 554.8V508.72H1743.8V598H1720.76V589.36C1714.64 596.56 1707.26 600.88 1693.76 600.88Z" fill="#151632"/>
</g>
<defs>
<clipPath id="clip0_1634_9695">
<rect width="1920" height="1080" fill="white"/>
</clipPath>
<clipPath id="clip1_1634_9695">
<rect width="42" height="43" fill="white" transform="translate(469 906)"/>
</clipPath>
</defs>
</svg>
