<svg width="49" height="32" viewBox="0 0 49 32" fill="none" xmlns="http://www.w3.org/2000/svg">
<path d="M46.8734 7.42235L48.4695 1.42972C45.8562 0.442628 43.0749 -0.0417546 40.2763 0.00281904C38.1759 0.000704828 36.0841 0.265953 34.0528 0.791969V7.08233C36.1348 6.5272 38.2843 6.25542 40.4412 6.27457C42.6367 6.28618 44.8134 6.67459 46.8734 7.42235ZM41.3483 15.7528V25.2294C38.9593 25.7438 36.4856 25.7438 34.0966 25.2294V31.6889C34.9105 31.8143 35.7338 31.8715 36.5576 31.8598C40.485 31.8598 45.3186 31.3912 48.3836 30.2865V15.752L41.3483 15.7528ZM1.53848 24.348L0 30.2434C2.62144 31.394 5.45971 31.9877 8.32979 31.9858C10.353 32.0618 12.3762 31.8327 14.3291 31.3066V25.4112C12.5653 26.1102 10.6575 26.384 8.76445 26.2097C6.25626 26.0547 3.80236 25.4225 1.53848 24.348ZM14.3291 6.06142L14.3721 0.282785C5.9555 -1.035 0 2.5352 0 9.12075C0.0420914 14.9865 5.43837 17.5071 9.92669 19.208C11.4556 19.6912 12.9234 20.3447 14.3016 21.1559L14.3291 14.4333L10.9188 12.8178C9.02129 11.9263 7.25088 10.8209 7.25088 8.9093C7.25088 7.50524 8.11418 5.80514 11.4368 5.80514C12.407 5.79901 13.3756 5.88483 14.3291 6.06142Z" fill="white"/>
<path d="M20.5869 10.0158V31.6476H27.7957V2.87622C24.6131 4.3441 22.06 6.87267 20.5878 10.0149" fill="white"/>
</svg>
