<svg xmlns="http://www.w3.org/2000/svg" viewBox="0 0 940 340" font-family="'Open Sans',sans-serif">
  <defs>
    <marker id="ah" viewBox="0 0 10 10" refX="7" refY="5" markerWidth="6" markerHeight="6" orient="auto-start-reverse">
      <path d="M0 0 L10 5 L0 10 z" fill="#1E2545"/>
    </marker>
  </defs>

  <rect x="0" y="0" width="940" height="340" fill="#FFFFFF"/>

  <!-- ================= Row 1: token ================= -->
  <text x="30" y="100" font-size="15" font-weight="600" fill="#1E2545">Sigrid</text>
  <text x="30" y="120" font-size="15" font-weight="600" fill="#1E2545">token</text>

  <rect x="150" y="72" width="196" height="62" rx="4" fill="#ECE7F4" stroke="#6E5A9E" stroke-width="1.5"/>
  <text x="248" y="99" text-anchor="middle" font-size="13.5" fill="#1E2545">Install prompt</text>
  <text x="248" y="118" text-anchor="middle" font-size="11.5" fill="#7A7596">on first use</text>

  <rect x="430" y="72" width="196" height="62" rx="4" fill="#ECE7F4" stroke="#6E5A9E" stroke-width="1.5"/>
  <text x="528" y="99" text-anchor="middle" font-size="13.5" fill="#1E2545">OS keychain</text>
  <text x="528" y="118" text-anchor="middle" font-size="11.5" fill="#7A7596">encrypted, off-disk</text>

  <rect x="710" y="72" width="196" height="62" rx="4" fill="#ECE7F4" stroke="#6E5A9E" stroke-width="1.5"/>
  <text x="808" y="99" text-anchor="middle" font-size="13.5" fill="#1E2545">Sigrid MCP server</text>
  <text x="808" y="118" text-anchor="middle" font-size="11.5" fill="#7A7596">authenticates you</text>

  <line x1="346" y1="103" x2="426" y2="103" stroke="#1E2545" stroke-width="3.5" stroke-linecap="round" stroke-dasharray="0.1 9" marker-end="url(#ah)"/>
  <line x1="626" y1="103" x2="706" y2="103" stroke="#1E2545" stroke-width="3.5" stroke-linecap="round" stroke-dasharray="0.1 9" marker-end="url(#ah)"/>
  <rect x="638" y="62" width="60" height="20" fill="#1E2545"/>
  <text x="668" y="76" text-anchor="middle" font-size="10.5" fill="#FFFFFF">Bearer</text>

  <!-- ================= Row 2: profile ================= -->
  <text x="30" y="250" font-size="15" font-weight="600" fill="#1E2545">Sigrid</text>
  <text x="30" y="270" font-size="15" font-weight="600" fill="#1E2545">profile</text>

  <rect x="150" y="222" width="196" height="62" rx="4" fill="#ECE7F4" stroke="#6E5A9E" stroke-width="1.5"/>
  <text x="248" y="249" text-anchor="middle" font-family="'Azeret Mono',monospace" font-size="12.5" fill="#6E5A9E">/sigrid:setup</text>
  <text x="248" y="268" text-anchor="middle" font-size="11.5" fill="#7A7596">or edit by hand</text>

  <rect x="430" y="216" width="196" height="74" rx="4" fill="#ECE7F4" stroke="#6E5A9E" stroke-width="1.5"/>
  <text x="528" y="242" text-anchor="middle" font-family="'Azeret Mono',monospace" font-size="10.5" fill="#1E2545">$CLAUDE_PLUGIN_DATA</text>
  <text x="528" y="258" text-anchor="middle" font-family="'Azeret Mono',monospace" font-size="10.5" fill="#1E2545">/CLAUDE.md</text>
  <text x="528" y="277" text-anchor="middle" font-size="11" fill="#7A7596">survives updates</text>

  <rect x="710" y="222" width="196" height="62" rx="4" fill="#ECE7F4" stroke="#6E5A9E" stroke-width="1.5"/>
  <text x="808" y="249" text-anchor="middle" font-size="13.5" fill="#1E2545">The skills</text>
  <text x="808" y="268" text-anchor="middle" font-size="11.5" fill="#7A7596">diagnose · improve · fix</text>

  <line x1="346" y1="253" x2="426" y2="253" stroke="#1E2545" stroke-width="3.5" stroke-linecap="round" stroke-dasharray="0.1 9" marker-end="url(#ah)"/>
  <line x1="626" y1="253" x2="706" y2="253" stroke="#1E2545" stroke-width="3.5" stroke-linecap="round" stroke-dasharray="0.1 9" marker-end="url(#ah)"/>
  <rect x="636" y="212" width="62" height="20" fill="#1E2545"/>
  <text x="667" y="226" text-anchor="middle" font-size="10.5" fill="#FFFFFF">read</text>
</svg>
